<?xml version="1.0" encoding="utf-8"?>
<!-- Generator: Adobe Illustrator 25.3.1, SVG Export Plug-In . SVG Version: 6.00 Build 0)  -->
<svg version="1.1" id="Layer_1" xmlns="http://www.w3.org/2000/svg" xmlns:xlink="http://www.w3.org/1999/xlink" x="0px" y="0px"
	 viewdiv="0 0 374 537.7" style="enable-background:new 0 0 374 537.7;" xml:space="preserve">
<style type="text/css">
	.st0{fill:#587255;}
	.st1{fill:#65A55F;}
	.st2{fill:#749671;}
	.st3{fill:#CDE6C8;}
	.st4{fill:#E2F0D8;}
</style>
<g>
	<path class="st0" d="M334.4,212c0.3,0.7,16.6,11.5,17,12.2c0.8,1.5,16.8,24.3,17.3,25.9c4.3,15.7,2.1,38.6-3.9,53.3
		c-5.1,12.5-13.6,22.8-21.7,33.4c-2.7,3.2-5.2,6.4-8,9.4c-9.7,11-19.6,21.8-29,33c-10.5,12.4-20.7,25-30.7,37.8
		c-14,17.8-35.5,35.9-54.4,48.2c-18.6,12.1-46.1,26.4-66.1,35.9c-28.9,13.8-58.9,24.6-90.1,31.8c-11.6,2.7-23.3,4.6-35.3,4.1
		c-6.5-0.3-12.4-2.3-16.2-7.6c-4-5.5-7.3-11.6-10.2-17.8c-2.7-5.7-2-11.8,0.4-17.7c3.7-8.9,9.3-16.6,16.6-22.6
		c10.5-8.7,21.8-16.4,32.4-25c11-8.9,22.2-17.7,32.1-27.7c14.1-14.3,28.3-27.4,40.3-43.5c6.6-8.8,12.3-18.2,17.9-27.7
		c5.9-9.9,13.8-20.4,19.3-30.6c7.3-13.5,14.8-27.8,21.6-41.5c6.8-13.6,12.6-27.7,20.2-40.9c6.6-11.5,14.5-22.3,22.7-32.7
		c4.4-5.6,19.5-16.5,61.1-7.4L334.4,212z"/>
	<path class="st1" d="M289.6,203.8c-12.7-2.9-30.6-7.8-47.6-4.4c-7.3,5.2-12.8,11.9-17.9,19.2c-13.8,19.9-23.1,42.1-33.6,63.7
		c-5.9,12.3-12.8,25.3-19.3,37.3c-5.7,10.5-14,21.4-20.1,31.7c-5.2,8.8-10.5,17.7-16.6,25.9c-12.2,16.3-26.8,30.2-41,44.8
		c-14.7,15.1-31.7,27.6-48.6,40.2c-8.6,6.4-16.8,13.4-24.7,20.7c-3.7,3.5-6.3,8.2-8.8,12.7c-2.7,4.9-3,10.2-0.5,15.4
		c1.7,3.6,3.5,7.2,5.7,10.5c3.3,5,8,7.8,14.3,7.8c15.2,0.1,29.9-2.8,44.4-6.8c34.6-9.5,67.4-23.6,99.7-39.1
		c20.3-9.8,46.5-25.9,62.9-41.2c12-11.2,27.7-26.3,38.5-38.7c14.6-16.8,29.1-33.7,43.3-50.9c11.7-14.2,23.8-28.2,34-43.4
		c9.9-14.7,12.4-39.2,9.2-57c-9-17.4-30.6-31.2-31.7-33L289.6,203.8z"/>
	<path class="st0" d="M362,248.3c-0.7-0.5-1.6-0.9-2.7-1.1c-1.6-0.4-3.2-1.2-4.5-2.3c-4.6-3.7-9.1-7.6-13.5-11.3
		c-1.9,4.8-4.5,6-10.2,4c-2.8-1-5.5-2.4-8.3-3.5c-5.8-2.3-11.5-4.9-17.5-6.4c-4.4-1.1-8.3-2-9.3-7.3c-1.7,0.4-3.1,0.8-4.5,1.2
		c-8.1,2.3-9.8,1.4-12.3-6.7c-1.2-3.9-3.6-5.4-7.7-4.5c-6.2,1.4-12.4,2.9-18.7,4.4c-1.4,0.3-2.8,0.3-4.2,0.5
		c4.2-5.8,10.4-7.1,16.8-9.1c-1.4-0.8-2.5-1.4-3.5-2.1c-1.6-1.1-8-6.5-9.6-7.1l1.8-4.8c0.7-0.8,1.4-1.6,2-2.7c1-1.8,4.7-2.6,7.3-3.1
		c4.6-0.8,9.3-0.9,14-1.6c11.1-1.6,17.6-8.8,21.8-18.6c6.2-14.2,9.3-29.2,10.5-44.6c1.1-14.2,0.8-28.2-3.1-42
		c-3.7-12.8-9.9-24.1-19.5-33.5c-9-8.8-20-11.7-32.1-11.7c-1.2,0-2.4,0.2-3.6,0.2c-7,0.2-12.5-4-14.6-11c-1.4-4.9,1.5-12.5,6.2-15.6
		c6.5-4.3,13.9-5.2,21.5-5.3c1.3,0,2.9,0.1,3.9,0.8c5.8,4.4,13.2,4.9,19.4,8.1c10.8,5.6,19.8,13.8,27.7,23
		c18.1,21.3,26.2,46.4,27.7,74c1.5,28.4,1.9,56.9,0.4,85.3c-0.1,2.5,0.2,5.1-0.1,7.6c-1.2,8.9,3.8,14.2,10.5,18.6
		c3.4,2.3,7,4.3,10,7c4.5,4.1,5.5,9.5,4.3,15.3L362,248.3z"/>
	<path class="st2" d="M337.7,219.7c1.3,2.7,2.2,4.7,3.3,6.7c0.5,0.9,1.1,1.8,1.8,2.3c2.4,1.8,5.1,3.1,7.3,5.1
		c3.7,3.2,7.5,6.3,12.2,7.8c1.4-4.9,0-8.8-3.9-11.2c-2.1-1.2-4.3-2.3-6.4-3.4c-4.9-2.6-9.5-5.3-11.3-11.4c-1.1-3.6-2-7.6-5.3-10.3
		c-0.7-0.5-0.9-2.6-0.5-3.3c0.5-0.8,2.1-0.8,3.3-1.2c-0.2-8.6-0.3-17.5-0.5-27.3c-1,1.3-1.7,2.1-2.8,3.6c-2.8-8.2-0.4-14.9,1.4-21.5
		c0.4,1.1,0.8,2.2,1.2,3.4c0.3,0,0.6-0.1,0.9-0.1c-1.3-19.9-2.2-39.9-3.9-59.8c-2-23-10.9-43.2-26.2-60.6
		c-11.6-13.1-26.4-22-41.1-31c-0.9-0.5-2.2-0.9-3.1-0.7C258.1,8,252.2,9,246.6,11c-3.9,1.4-5.6,5.5-4.5,9.3c0.6,2.1,2.1,4,3.6,5.7
		c0.8,0.9,2.2,1.8,3.3,1.8c4.6-0.1,9.1-0.6,13.4-1c-2.2-0.9-4.6-1.9-7.5-3.1c3.5-2.7,6.5-2.2,9.4-1.3c3.5,1,3.9,2.4,2.3,4.4
		c6.3,2.7,13.4,4.5,19.1,8.4c15,10.2,23.2,25.4,28.1,42.4c3.7,13,4.3,26.3,3.5,39.8c-1.1,17.3-3.8,34.2-10.9,50.1
		c-2.4,5.3-5.9,10.2-9.5,14.9c-5.4,7.1-14.7,6.9-22,10.4c-1.3,0.6-3.1,0.2-4.6,0.1c-1.7-0.1-3.4-0.6-5-0.5c-1.5,0-3,0.5-4.5,0.7
		c-0.1,0.4-0.1,0.9-0.2,1.3c6.1,3.6,12.2,7.1,18.1,11c2.1,1.3,4.4,3.1,5.2,5.3c1.6,4.3,3.9,6,8.3,4.7c0.9-0.3,1.9-0.3,2.9-0.1
		c3,0.5,7,0.2,4.7,6.3c14.6-3.5,24.6,6.4,37.2,10.7c0.1-3.2,0.2-5.9,0.3-7.8c-2.2-0.8-4.1-0.9-5-1.9c-1.3-1.4-2.6-3.5-2.8-5.3
		c-0.7-7.8-1-15.6-1.3-23.4c-0.1-1.3,0.3-2.6,0.7-3.9c0.2-0.5,0.9-0.9,1.5-1.3c0.4,0.5,1.1,1,1.2,1.6c0.2,1.4,0.2,2.9,0.1,4.3
		c-0.6,9.4,1.4,18.5,4.6,27.5C336.5,221.4,336.8,220.9,337.7,219.7z"/>
	<g>
		<path class="st3" d="M330.5,124c-4.7-6.1-0.5-10.8,0.2-16c3.5,4.5,2,37.1-2.4,58.2c0.6,0.3,1.7,0.6,1.7,1
			c0.1,4.2,0.1,8.4-0.2,12.5c-0.1,0.8-1.5,1.5-2.3,2.3c-0.6-1-1.7-2.1-1.6-3.1c0.3-3.1,1.1-6.1,1-8.8c-0.5-1.4-1.6-2.9-1.5-4.2
			c0.3-3.4,1.3-6.6,1.7-10c0.5-3.9,0.9-7.9,0.7-11.9c-0.1-2.4-3.1-4.4-1.5-7.2c0.7-1.3-0.5-4.1,2.7-3.7c0.1,0,0.5-1.2,0.5-1.9
			C330,128.6,330.3,126,330.5,124z"/>
		<path class="st3" d="M303,43.3c4.5,0.8,6.7,3.8,8.6,7c1.2,2.1,2.3,4.3,3.8,6.2c4.4,5.4,4.7,12.3,6.8,18.5c0.2,0.6-0.3,1.4-0.5,2.2
			c-0.8-0.4-1.7-0.7-2.3-1.2c-0.4-0.3-0.6-1.1-0.7-1.6c-2-9-6.6-16.8-12.1-24.1C305.2,48.1,304.3,45.6,303,43.3z"/>
		<path class="st3" d="M311.7,186c0.7-1.6,1-2.9,1.7-4c3.5-5.7,6.1-11.6,7.1-18.4c0.6-4.3,2.7-8.5,4.5-12.5
			C325.8,164.2,317.9,184.8,311.7,186z"/>
		<path class="st3" d="M291.1,210.8c6.6-8.4,12.9-16.3,19.2-24.3C310.6,194.5,298.1,211.4,291.1,210.8z"/>
		<path class="st3" d="M300.8,192.8c-2.2,5.6-5.2,9.9-10.2,12.4c-0.8,0.4-2,0-3,0c0.1-1.1-0.2-2.5,0.4-3.2c1.6-2,3.6-3.5,5.3-5.4
			c1.3-1.5,2.3-3.3,3.7-4.9c0.7-0.8,1.8-1.3,2.7-1.9C300,191,300.5,192.1,300.8,192.8z"/>
		<path class="st3" d="M264.7,20.3c5-2.8,9.9-1.4,14.6,0.1c2.7,0.9,5.2,2.4,7.6,4c0.8,0.6,1,2.1,1.5,3.2c-1.1-0.1-2.4,0-3.4-0.4
			c-3.3-1.3-6.5-2.9-9.9-4.1C271.7,21.9,268.2,21.2,264.7,20.3z"/>
		<path class="st3" d="M326.2,77.5c1.5,3.2,3.5,6.3,4.3,9.6c1,4.2,1.1,8.6,1.4,12.9c0.1,1.1-0.4,2.1-0.6,3.2c-0.4,0-0.8,0-1.2,0
			C328.8,94.7,327.5,86.1,326.2,77.5L326.2,77.5z"/>
		<path class="st3" d="M322,204.7c2.2,2.5,3,11.2,1.2,14.8C318.3,216.6,317.6,208.1,322,204.7z"/>
		<path class="st3" d="M310.2,212.9c-4.6-2.7-2.6-10.8,3.3-14.3C314.5,204,311.9,208.3,310.2,212.9z"/>
		<path class="st3" d="M253.9,19c3.4-2.6,7.2-2.9,11.4-2.3C261.5,20.1,256.1,21.3,253.9,19z"/>
		<path class="st3" d="M335.9,185.6c0.3,3.4,0.7,6.7,1,10.1c-0.6,0-1.2,0.1-1.8,0.1c-3.2-3.1-0.6-6.8-0.4-10.2
			C335,185.6,335.5,185.6,335.9,185.6z"/>
		<path class="st3" d="M285,198c0.6-1.5,0.9-3.2,1.7-4.6c0.4-0.7,1.5-1.3,2.4-1.5c0.5-0.1,1.7,0.5,1.7,0.8c0,1-0.1,2.3-0.7,2.9
			c-1.3,1.2-2.9,1.9-4.4,2.8C285.5,198.3,285.2,198.2,285,198z"/>
		<path class="st3" d="M326.3,77.4c-2.6-3.8-5.2-7.5-4.8-12.5C324.6,68.5,325.2,73.1,326.3,77.4C326.2,77.5,326.3,77.4,326.3,77.4z"
			/>
		<path class="st3" d="M319.5,186.8c-1.2,2.7-2.5,5.4-3.7,8c-0.4-0.2-0.8-0.3-1.1-0.5c0.5-3,0.2-6.3,3.1-8.3
			C318.3,186.3,318.9,186.5,319.5,186.8z"/>
		<path class="st3" d="M294.9,31.6c1.7,1.2,3.5,2.3,5.1,3.7c0.4,0.3,0.1,1.4,0.2,2.2c-0.7-0.1-1.7,0.1-2.2-0.3
			c-1.5-1.2-2.8-2.7-4.1-4.1C294.2,32.6,294.6,32.1,294.9,31.6z"/>
		<path class="st3" d="M323.8,170.5c-0.7,3.6-1.2,6.3-1.9,9.5C319.6,177.3,319.9,175.8,323.8,170.5z"/>
		<path class="st3" d="M321,198.1c0.3-2.4,0.7-4.8,1-7.2c0.5,0.1,0.9,0.1,1.4,0.2c2.2,2.8-0.2,4.9-1.2,7.1
			C321.8,198.2,321.4,198.1,321,198.1z"/>
	</g>
	<g>
		<path class="st4" d="M273,257.6c-0.6-1.1-0.9-2.4-1.7-3.2c-4.7-4-9.4-8-14.2-11.8c-7.8-6-15.8-11.6-25.3-14.5
			c-3.8-1.1-7.5-1.5-12.3,0.7c3.6,1.7,6.5,2.9,9.3,4.3c10.8,5.3,21.8,10.4,32.3,16.2c4,2.2,7.2,5.9,10.8,8.9
			C272.2,258,272.6,257.8,273,257.6z"/>
		<path class="st4" d="M213.9,236.6c4.2,5.8,10.8,7.8,16.8,10.9c6.7,3.5,13.7,6.6,20.2,10.5c3.4,2,6.1,5.3,9.3,7.9
			c0.9,0.7,2.2,0.9,3.3,1.3c-0.4-1.1-0.4-2.6-1.1-3.3c-9.7-10-21-17.6-33.7-23.3c-2.5-1.1-4.8-2.8-7.4-3.7c-2.2-0.8-4.7-1-7-1.4
			C214.1,235.8,214,236.2,213.9,236.6z"/>
		<path class="st4" d="M208.9,251.3c3.1,4,7.5,6.2,12.2,8c5.7,2.1,11.5,3.8,16.9,6.4c3.4,1.6,6.2,4.5,9.3,6.7c0.9,0.7,2.1,1,3.2,1.5
			c-0.4-1.2-0.5-2.7-1.3-3.5c-7.7-7.6-16.8-13-27-16.5c-4.1-1.4-8.4-2.6-12.6-3.9C209.3,250.4,209.1,250.9,208.9,251.3z"/>
		<path class="st4" d="M342.4,285.9c-2.8-8.1-31.5-22.6-41.8-21.9c-0.2,0.3-0.3,0.6-0.5,0.9c4.6,2.4,8.9,5.2,13.7,7.1
			c8.7,3.3,17.5,6.2,24.7,12.4C339.3,285.1,340.6,285.3,342.4,285.9z"/>
		<path class="st4" d="M198.7,282.9c2.4,2,4.5,4.7,7.3,6c9,4.2,18.4,10.5,26.1,16.8c0.5,0.4,1.6,0.2,2.5,0.2c-0.1-0.7,0-1.8-0.5-2.2
			c-10-7.5-20-18.5-32.5-21.8c-0.7-0.2-1.4-0.2-2.1-0.2C199.3,282.1,199,282.5,198.7,282.9z"/>
		<path class="st4" d="M204.9,265.7c2.1,6.3,7.2,8.2,12,10.3c3.2,1.4,6.7,2.2,9.8,3.7c4,1.9,7.8,4.1,11.7,6.2
			c0.7,0.4,1.4,0.7,2.1,1.1c0.3-0.2,0.5-0.4,0.8-0.7c-1-1.1-1.7-2.6-2.9-3.4c-6.3-4-12.8-7.8-19.3-11.5c-3.1-1.8-6.5-3.3-9.8-4.7
			C208.2,266.2,206.7,266.1,204.9,265.7z"/>
		<path class="st4" d="M291,359.8c-4.5-12.5-19.4-10.3-28.3-15.4c1-2.6-0.5-3.9-5.1-3.5c1,1,1.9,1.9,2.8,2.9
			c-0.8,0.2-1.5,0.4-2.7,0.6c4.2,5.2,12.6,5.5,18.7,6.9c4.9,1.1,9.2,2.8,11.6,7.6c0.2,0.4,0.6,0.7,1,0.9
			C289.2,359.9,289.7,359.8,291,359.8z"/>
		<path class="st4" d="M184,371.2c-4.3-6.9-24.6-16.1-33.7-15.7c1.3,3.6,4.1,5.6,7.3,6.8c3.6,1.3,7.4,2.3,11.1,3.1
			c3.9,0.9,7.8,1.5,10.9,4.4C180.5,370.6,182.1,370.7,184,371.2z"/>
		<path class="st4" d="M200.7,346.5c-2.9-6.8-25.4-18.9-33.7-18.3c1.7,4.6,6,6.3,9.9,7.6c7.7,2.6,15.3,5.2,21.8,10.3
			C199.1,346.5,199.9,346.4,200.7,346.5z"/>
		<path class="st4" d="M294.5,294.4c2.5,3.9,5.8,12,9.7,13.6c5.7,2.4,11.3,4.7,17.1,6.8c1.1,0.4,2.5-0.3,3.8-0.5
			c-0.7-0.9-1.3-2-2.3-2.7c-8.2-5.6-17.4-14.9-26.9-17.4C295.7,294.1,295.3,294.3,294.5,294.4z"/>
		<path class="st4" d="M273.3,325.1c4.1,2.3,8.2,4.8,12.5,6.9c4.9,2.3,9.9,4.3,15,6.3c0.9,0.3,2.1-0.1,3.1-0.2
			c-0.4-0.9-0.7-2.1-1.4-2.6c-8.4-5.9-17.5-10.2-27.7-11.8c-0.3,0-0.6,0.1-1,0.2C273.6,324.3,273.4,324.7,273.3,325.1z"/>
		<path class="st4" d="M178.2,315.8c2.6,2.2,4.9,4.9,7.8,6.4c7,3.7,12.2,7,18.1,12.7c0.4,0.4,1.3,0.4,2,0.6
			C204.5,329.1,189.9,315.7,178.2,315.8z"/>
		<path class="st4" d="M181.7,300.7c3.2,2.4,6.2,5.2,9.6,7.2c5.7,3.4,11.7,6,17.4,9.4c2.4,1.4,4.1,3.9,6.7,6.4
			C213.6,315.3,192.2,300.4,181.7,300.7z"/>
		<path class="st4" d="M294.5,279.7c13.1,6.5,25.8,12.8,38.5,19c0.4,0.2,0.9-0.1,1.4-0.2c0.1-0.4,0.3-0.8,0.4-1.2
			c-9.8-6-19.4-12.2-29.4-17.8C301.8,277.5,297.5,277.1,294.5,279.7z"/>
		<path class="st4" d="M287.8,317.3c3.1,1.4,6.1,3.2,9.3,4.2c3.4,1,7.2,0.8,10.7,1.9c2.6,0.8,4.8,2.8,7.3,4.2
			c1.1,0.6,2.3,0.9,3.4,1.4c-0.2-1.3-0.1-2.9-0.8-3.7c-1.5-1.5-3.3-2.9-5.2-3.8c-7.6-3.5-15.7-5.2-24-5.5
			C288.2,316.3,288,316.8,287.8,317.3z"/>
		<path class="st4" d="M161.4,337.9c1.7,6.2,5.7,8.4,9.9,10.3c6.6,3,13.2,5.7,19.9,8.4c0.3,0.1,0.9-0.1,1.5-0.7
			C183,349.2,173,343.1,161.4,337.9z"/>
		<path class="st4" d="M250.1,355.8c2.6,2.1,5,4.7,8,6.3c4.2,2.3,12.4,0.6,15.5,4.7c0.4,0.6,1.6,0.5,2.5,0.7
			c0.1-0.9,0.4-1.9,0.1-2.6C274.2,359.6,256.8,353,250.1,355.8z"/>
		<path class="st4" d="M222.5,311.5c-9.3-7.6-18.3-18.4-31.2-21.3c1.7,4.7,5.5,8.4,9,10.4c6.4,3.7,12.9,7.4,19.3,11.1
			c0.7,0.4,1.6,0.5,2.4,0.8C222.2,312.2,222.3,311.8,222.5,311.5z"/>
		<path class="st4" d="M134.4,384.2c3.4,1.8,6.7,3.7,10.2,5.4c3.9,2,6.9,5.6,10.8,7.7c0.8,0.5,1.9,0.6,2.9,0.8c0-0.9,0.3-1.9,0-2.6
			c-2.3-5.6-17-14.1-23.1-12.7C134.9,383.4,134.7,383.8,134.4,384.2z"/>
		<path class="st4" d="M259.7,387.9c0.1-7.1-17.3-20-25.8-18.6C242.9,375.7,251.1,381.7,259.7,387.9z"/>
		<path class="st4" d="M113.6,406.1c2.2,1.7,4.3,3.6,6.6,5.2c3.4,2.3,6.9,4.4,10.4,6.4c0.8,0.5,2,0.3,3,0.4c-0.1-1,0.3-2.4-0.2-2.9
			c-5.5-5-11.3-9.5-19-10.2C114.1,405.3,113.8,405.7,113.6,406.1z"/>
		<path class="st4" d="M226.6,383.9c5.6,4.5,10.6,8.6,15.7,12.5c0.6,0.4,2.2,0.4,2.5,0c0.5-0.7,0.8-2.1,0.4-2.9
			C243,389.1,235.2,382.7,226.6,383.9z"/>
		<path class="st4" d="M146.3,370.2c1.9,1.5,3.6,3.6,5.8,4.5c4.8,2.2,9.8,3.9,14.8,5.7c0.7,0.3,1.7-0.2,2.5-0.3
			c-0.3-0.7-0.4-1.7-1-2.1c-6.4-4.9-13.8-7.6-21.6-8.9C146.6,369.5,146.4,369.8,146.3,370.2z"/>
		<path class="st4" d="M218.2,394.5c4.1,6.6,9.2,10.7,14.8,14.3c0.9,0.5,2.4,0,3.6,0c-0.4-1.1-0.6-2.5-1.4-3.3
			C230.9,400.3,225.5,396.8,218.2,394.5z"/>
		<path class="st4" d="M126,395c2.7,2.1,5.4,4.3,8.1,6.3c2.3,1.7,4.7,3.4,7.2,4.9c0.7,0.4,1.7,0.2,2.6,0.2c0-0.8,0.2-1.7-0.1-2.3
			C142.1,399.6,131.3,393.4,126,395z"/>
		<path class="st4" d="M104.5,414.5c3,5.5,6.6,9.1,11.3,11.5c1.3,0.7,3.2,0.2,4.8,0.2c-0.6-1.2-1-2.8-2-3.7
			C114.9,418.8,110.6,415.8,104.5,414.5z"/>
		<path class="st4" d="M95,427c3.1,3.7,6.1,7.6,9.5,11c0.8,0.8,2.9,0.3,4.5,0.4c-0.5-1.4-0.5-3.3-1.5-4.2c-3.5-3.2-7.2-6.1-10.9-9.1
			C96.1,425.8,95.6,426.4,95,427z"/>
		<path class="st4" d="M49.4,463.3c3.5,4,6.9,8,10.5,11.9c0.6,0.7,2,0.6,3.1,0.8c0-1,0.4-2.3-0.1-2.9c-2.6-3.3-5.2-6.6-8.2-9.5
			c-1.1-1-3.3-0.9-5-1.3C49.6,462.7,49.5,463,49.4,463.3z"/>
		<path class="st4" d="M207.8,411.8c3,5.2,6.7,9,11.6,11.4c0.9,0.4,2.2-0.2,3.3-0.4c-0.3-1-0.3-2.4-1-3
			C217.8,416.4,213.9,412.9,207.8,411.8z"/>
		<path class="st4" d="M90.7,460.3c-3.1-7-7.2-12-13.3-15.8C77.4,449.9,84.4,458.4,90.7,460.3z"/>
		<path class="st4" d="M80.4,469c-3.4-7.2-7.9-12.8-15.6-15.5c-0.3,4,1.9,6,4.6,7.4c3.7,1.9,7.8,3.1,9.6,7.5
			C79,468.8,79.8,468.9,80.4,469z"/>
		<path class="st4" d="M85.1,436.5c1.2,4.7,3.4,8.7,7.7,11.4c0.8,0.5,2.2,0,3.4,0c-0.1-1.2,0.3-2.9-0.4-3.5c-3.1-3-6.6-5.8-9.9-8.6
			C85.6,436,85.3,436.3,85.1,436.5z"/>
		<path class="st4" d="M39.5,469.6c0,5.1,1.8,8.8,4.5,12.1c0.5,0.7,2,1.1,2.8,0.8c0.6-0.2,1.2-1.9,0.9-2.6
			C46.4,475.7,44.2,472,39.5,469.6z"/>
		<path class="st4" d="M194.4,427.1c2.9,2.4,5.8,4.8,8.9,7c0.7,0.5,2.3-0.2,3.5-0.3c-0.4-1.1-0.5-2.8-1.3-3.3
			c-3.2-1.9-6.7-3.4-10-5.1C195.1,426,194.7,426.5,194.4,427.1z"/>
		<path class="st4" d="M157.7,456.2c2.5,2.3,4.9,4.7,7.5,6.8c0.5,0.4,1.7,0,2.6-0.1c0-0.9,0.2-1.9-0.2-2.6c-2-3.4-5.1-4.8-8.7-5.4
			C158.5,455.4,158.1,455.8,157.7,456.2z"/>
		<path class="st4" d="M173.4,444.2c1.8,2.2,3.3,4.6,5.4,6.5c0.9,0.8,2.7,0.7,4.1,1c-0.4-1.3-0.4-3.1-1.2-3.9
			c-2.1-1.9-4.7-3.3-7.1-4.9C174.2,443.4,173.8,443.8,173.4,444.2z"/>
		<path class="st4" d="M140.2,471.1c1.4,1.8,2.6,3.6,4.2,5.2c0.5,0.5,2,0.5,2.6,0c0.4-0.3,0.6-2,0.1-2.5c-1.6-1.6-3.5-3-5.3-4.5
			C141.3,470,140.7,470.5,140.2,471.1z"/>
		<path class="st4" d="M283,305.8c-1.6-3.4-3.9-4.2-8.3-3.1C277.3,306.3,279.3,307.1,283,305.8z"/>
		<path class="st4" d="M266.1,311.9c1.7,1.1,3.3,2.3,5,3.2c0.6,0.3,1.6-0.5,2.5-0.8c-0.4-0.8-0.6-2.1-1.2-2.3
			c-1.8-0.7-3.8-1-5.7-1.4C266.5,311.1,266.3,311.5,266.1,311.9z"/>
		<path class="st4" d="M234.4,324.3c1.5,1.2,0.3,4.7,1.9,5.7c0.4,0.3,4.4-2.7,4.9-3.3c0.2-0.3-0.2-1.7-0.7-2
			c-1.7-0.8-3.6-1.2-5.4-1.8C234.8,323.3,234.6,323.8,234.4,324.3z"/>
		<path class="st4" d="M337.7,250.8c0.6,1.4,1,3,1.9,4.3c0.4,0.6,1.8,0.5,2.7,0.7c-0.1-1,0.2-2.2-0.3-2.8c-0.9-1.1-2.3-1.8-3.5-2.6
			C338.2,250.4,338,250.6,337.7,250.8z"/>
		<path class="st4" d="M285.3,251.2c0.4-3.3-2.7-3.6-4.6-5.1c-0.3,0.2-0.5,0.4-0.8,0.6c1.3,1.8,2.6,3.7,3.9,5.5
			C284.3,251.9,284.8,251.6,285.3,251.2z"/>
		<path class="st4" d="M195.3,390.2c1.5,1.2,2.9,2.5,4.5,3.5c0.4,0.3,1.7-0.4,2.3-1c0.2-0.3-0.2-1.8-0.7-2c-1.7-0.8-3.6-1.3-5.4-2
			C195.8,389.3,195.6,389.8,195.3,390.2z"/>
		<path class="st4" d="M120.1,481c1.5,1.2,0.3,4.7,1.9,5.7c0.4,0.3,4.4-2.7,4.9-3.3c0.2-0.3-0.2-1.7-0.7-2c-1.7-0.8-3.6-1.2-5.4-1.8
			C120.6,480.1,120.3,480.5,120.1,481z"/>
		<path class="st4" d="M97.5,486.3c0.9,2.6,1.6,5.4,2.9,7.8c0.5,0.9,2.2,1.1,3.4,1.6c0.2-1.3,1-2.9,0.5-3.8
			c-1.3-2.4-3.2-4.5-4.9-6.7C98.7,485.6,98.1,486,97.5,486.3z"/>
		<path class="st4" d="M86.1,499.7c0.6,1.4,1.2,2.8,2,4.1c0.1,0.1,1.2-0.3,1.8-0.5c-0.6-1.5-1.3-3-1.9-4.4
			C87.3,499.2,86.7,499.4,86.1,499.7z"/>
	</g>
</g>
</svg>
