<?xml version="1.0" encoding="utf-8"?>
<!-- Generator: Adobe Illustrator 25.3.1, SVG Export Plug-In . SVG Version: 6.00 Build 0)  -->
<svg version="1.1" id="Layer_1" xmlns="http://www.w3.org/2000/svg" xmlns:xlink="http://www.w3.org/1999/xlink" x="0px" y="0px"
	 viewBox="0 0 792 612" style="enable-background:new 0 0 792 612;" xml:space="preserve">
<path d="M750.2,245.2c-15.1,0-29.3,0-43.5,0c-1.9,0-3.1,0.6-4.4,1.9c-19.4,20.7-38.9,41.4-58.3,62.2c-1.2,1.3-2.4,1.8-4.2,1.8
	c-165.9,0-331.9,0-497.8,0c-0.8,0-1.7-0.1-3-0.2c21.1-21.9,41.8-43.5,63-65.6c-1.7,0-2.5,0-3.4,0c-13.3,0-26.6,0-40,0
	c-2,0-3.3,0.6-4.6,2c-19.1,20.5-38.3,40.9-57.5,61.4c-4.9,5.2-9.8,10.5-14.8,15.8c0.4,0.5,0.6,0.8,0.9,1.2
	c24,25.6,48.1,51.2,72.2,76.8c0.7,0.8,2.1,1.3,3.2,1.3c13.8,0.1,27.5,0.1,41.3,0c0.6,0,1.3-0.1,2.3-0.3
	c-21-21.9-41.8-43.5-62.9-65.5c1.5,0,2.2,0,2.9,0c166,0,332.1,0,498.1,0c1.8,0,3,0.5,4.2,1.8c19.4,20.7,38.9,41.4,58.3,62.2
	c1.3,1.4,2.6,1.9,4.4,1.9c13.4-0.1,26.8,0,40.2,0c0.8,0,1.7-0.1,3-0.2c-25.5-26.6-50.7-52.8-76-79.1
	C699.4,298.1,724.5,271.9,750.2,245.2z"/>
<path d="M59.2,245.3c0,52.9,0,105.6,0,158.2c11.7,0,23.3,0,35.1,0c0-1.2,0-2.3,0-3.3c0-17.5-0.1-35,0.1-52.5
	c0.1-4.2-1.1-7.2-4.1-10.1c-4.3-4.1-8.3-8.7-12.4-13.1c5-5.4,9.9-10.5,14.7-15.8c1-1.1,1.7-2.8,1.7-4.2c0.1-18.8,0.1-37.5,0.1-56.3
	c0-0.9-0.1-1.9-0.1-2.9C82.4,245.3,70.9,245.3,59.2,245.3z"/>
<path d="M442.4,245.4c-37.3,0-74.5,0-111.8,0c0,20.9,0,41.6,0,62.4c11.7,0,23.3,0,35.1,0c0-10.1,0-20.1,0-30.3c25.7,0,51.2,0,76.7,0
	C442.4,266.6,442.4,256.1,442.4,245.4z"/>
<path d="M330.6,403.6c37.3,0,74.5,0,111.8,0c0-10.8,0-21.4,0-32.3c-25.7,0-51.2,0-76.9,0c0-10.3,0-20.2,0-30.1
	c-11.8,0-23.3,0-34.9,0C330.6,362.1,330.6,382.8,330.6,403.6z"/>
<path d="M591.9,384.4c-9.1-7.4-18-14.7-27-22c-10.2,11.5-23.1,14.6-37.4,12.3c-18.3-2.9-29.6-14.3-35.7-31.4
	c-0.7-1.8-1.4-2.5-3.4-2.5c-10.7,0.1-21.4,0-32.1,0.1c-0.8,0-1.6,0.1-2.5,0.2c0.1,0.9,0,1.6,0.2,2.2c3.1,15.4,9.4,29.4,20.9,40.2
	c24.8,23.3,54.2,28.9,86.6,20.7C573.5,401.2,583.7,394.6,591.9,384.4z"/>
<path d="M315.6,371.3c-21.8,0-43.2,0-64.9,0c0-10.2,0-20.2,0-30.1c-11.7,0-23.2,0-34.8,0c0,20.9,0,41.7,0,62.5c33.3,0,66.5,0,99.7,0
	C315.6,392.8,315.6,382.3,315.6,371.3z"/>
<path d="M642.3,307.8c0-20.9,0-41.6,0-62.4c-11.7,0-23.3,0-35,0c0,20.9,0,41.5,0,62.4C619.1,307.8,630.6,307.8,642.3,307.8z"/>
<path d="M607.4,341.1c0,20.9,0,41.7,0,62.4c11.7,0,23.3,0,34.9,0c0-20.9,0-41.6,0-62.4C630.7,341.1,619.1,341.1,607.4,341.1z"/>
<path d="M215.8,245.4c0,21,0,41.6,0,62.4c11.7,0,23.2,0,34.8,0c0-20.9,0-41.6,0-62.4C239,245.4,227.5,245.4,215.8,245.4z"/>
<path d="M542.3,241c5.4,0.9,10.9,1.5,16.1,2.8c12.5,3.1,23.4,9.1,31.9,18.9c0.5,0.5,0.9,1.1,1.4,1.8c-9,7.3-17.9,14.5-27.2,22.1
	c-1.1-1.2-2-2.5-3.1-3.5c-8.2-7.5-18.1-10-28.9-9.5c-18.9,0.8-34.3,12.5-40.6,31.3c-0.9,2.5-2,3.2-4.6,3.2
	c-10.2-0.1-20.3-0.1-30.5-0.1c-1,0-2,0-3.4,0c0.4-2.1,0.6-3.9,1.1-5.6c8.1-31.6,28.5-50.8,59.9-58.6c5-1.2,10.3-1.6,15.4-2.3
	c0.9-0.1,1.7-0.3,2.6-0.5C535.8,241,539.1,241,542.3,241z"/>
</svg>
