<?xml version="1.0" encoding="utf-8"?>
<!-- Generator: Adobe Illustrator 25.3.1, SVG Export Plug-In . SVG Version: 6.00 Build 0)  -->
<svg version="1.1" id="Layer_1" xmlns="http://www.w3.org/2000/svg" xmlns:xlink="http://www.w3.org/1999/xlink" x="0px" y="0px"
	 viewBox="0 0 414 210" style="enable-background:new 0 0 414 210;" xml:space="preserve">
<style type="text/css">
	.st0{fill:#FFFFFF;}
</style>
<g>
	<g>
		<g>
			<path d="M340.1,179.1H129.4c-33.8,0-61.2-27.4-61.2-61.2V61.2C68.2,27.4,95.6,0,129.4,0h210.7c33.8,0,61.2,27.4,61.2,61.2v56.8
				C401.2,151.7,373.9,179.1,340.1,179.1z"/>
			<rect x="68.2" y="119.4" width="333" height="60.2"/>
		</g>
		<g>
			<rect y="165" width="414" height="15"/>
			<rect x="42" y="127" width="17" height="50"/>
		</g>
	</g>
	<path class="st0" d="M301.6,191H252c-4.6,0-8.4-3.8-8.4-8.4v-10c0-4.6,3.8-8.4,8.4-8.4h49.6c4.6,0,8.4,3.8,8.4,8.4v10
		C310,187.2,306.2,191,301.6,191z"/>
</g>
<path d="M305,181.8c0,15.7-12.7,28.4-28.4,28.4s-28.4-12.7-28.4-28.4s12.7-28.4,28.4-28.4S305,166.1,305,181.8z M276.6,169.7
	c-6.7,0-12.1,5.4-12.1,12.1s5.4,12.1,12.1,12.1s12.1-5.4,12.1-12.1S283.3,169.7,276.6,169.7z"/>
<g>
	<path class="st0" d="M100.3,122.1H125V147H98.7c-5.3,0-9.9-2.2-13.7-6.7c-3.8-4.5-5.7-9.9-5.7-16.2V55.9c0-6.3,1.9-11.7,5.7-16.2
		c3.8-4.5,8.4-6.7,13.7-6.7h7c5.3,0,9.9,2.2,13.7,6.7c3.8,4.5,5.7,9.9,5.7,16.2v61.7h-24.7V122.1z M100.3,57.9v34.9h3.7V57.9H100.3z
		"/>
	<path class="st0" d="M130.3,147V33h21v89.1h10.5V147H130.3z"/>
	<path class="st0" d="M215.4,122.1V33h21v91.1c0,6.3-1.9,11.7-5.7,16.2c-3.8,4.5-8.4,6.7-13.7,6.7h-7c-5.3,0-9.9-2.2-13.7-6.7
		c-3.8-4.5-5.7-9.9-5.7-16.2V88.6h21v33.5H215.4z"/>
	<path class="st0" d="M266.4,122.1v-12.6h21v14.5c0,6.3-1.9,11.7-5.7,16.2c-3.8,4.5-8.4,6.7-13.7,6.7h-7c-5.3,0-9.9-2.2-13.7-6.7
		c-3.8-4.5-5.7-9.9-5.7-16.2V55.9c0-6.3,1.9-11.7,5.7-16.2c3.8-4.5,8.4-6.7,13.7-6.7h7c5.3,0,9.9,2.2,13.7,6.7
		c3.8,4.5,5.7,9.9,5.7,16.2v49.1h-24.7v17H266.4z M262.8,57.9v22.3h3.7V57.9H262.8z"/>
	<path class="st0" d="M313.8,57.9v38.5h24.7v24.9h-24.7V147h-21V55.9c0-6.3,1.9-11.7,5.7-16.2c3.8-4.5,8.4-6.7,13.7-6.7h7
		c5.3,0,9.9,2.2,13.7,6.7c3.8,4.5,5.7,9.9,5.7,16.2v35.9h-21V57.9H313.8z"/>
	<path class="st0" d="M368.4,122.1v-12.6h21v14.5c0,6.3-1.9,11.7-5.7,16.2c-3.8,4.5-8.4,6.7-13.7,6.7h-7c-5.3,0-9.9-2.2-13.7-6.7
		c-3.8-4.5-5.7-9.9-5.7-16.2V55.9c0-6.3,1.9-11.7,5.7-16.2c3.8-4.5,8.4-6.7,13.7-6.7h7c5.3,0,9.9,2.2,13.7,6.7
		c3.8,4.5,5.7,9.9,5.7,16.2v49.1h-24.7v17H368.4z M364.8,57.9v22.3h3.7V57.9H364.8z"/>
</g>
</svg>
