<?xml version="1.0" standalone="no"?>
<!DOCTYPE svg PUBLIC "-//W3C//DTD SVG 20010904//EN"
 "http://www.w3.org/TR/2001/REC-SVG-20010904/DTD/svg10.dtd">
<svg version="1.0" xmlns="http://www.w3.org/2000/svg"
 width="1000.000000pt" height="1000.000000pt" viewBox="0 0 1000.000000 1000.000000"
 preserveAspectRatio="xMidYMid meet">
<metadata>
Created by potrace 1.14, written by Peter Selinger 2001-2017
</metadata>
<g transform="translate(0.000000,1000.000000) scale(0.100000,-0.100000)"
fill="#000000" stroke="none">
<path d="M6008 9904 c-2 -1 -23 -5 -48 -8 -76 -9 -105 -18 -183 -56 -66 -32
-114 -80 -143 -145 -49 -106 -28 -220 54 -300 62 -59 93 -69 231 -72 170 -3
208 -7 316 -38 122 -35 212 -91 320 -200 150 -151 256 -325 324 -535 34 -103
35 -108 56 -224 37 -204 39 -497 4 -761 -36 -276 -116 -559 -206 -725 -107
-198 -231 -274 -479 -294 -87 -7 -108 -10 -192 -27 -39 -8 -61 -20 -86 -45
-28 -29 -42 -35 -92 -40 -161 -17 -295 -61 -384 -128 -94 -72 -371 -453 -512
-706 -62 -112 -117 -222 -221 -445 -54 -116 -357 -719 -399 -795 -14 -25 -51
-94 -83 -155 -64 -120 -147 -258 -265 -435 -43 -63 -112 -173 -155 -245 -195
-325 -331 -517 -508 -720 -117 -134 -693 -702 -817 -807 -190 -159 -419 -342
-575 -458 -165 -124 -145 -108 -270 -208 -187 -149 -262 -237 -348 -408 -63
-126 -79 -210 -63 -314 8 -49 103 -239 175 -347 103 -158 184 -197 401 -197
198 0 408 26 590 74 19 5 46 11 60 14 14 2 25 5 25 6 0 1 7 3 15 5 8 1 44 11
80 20 36 9 72 19 80 21 8 2 33 8 55 14 22 6 49 13 60 15 115 26 566 183 805
280 268 108 808 364 1040 492 30 17 89 48 130 71 688 369 1204 780 1565 1247
38 50 72 92 75 95 3 3 39 48 80 100 41 52 77 97 80 100 3 3 44 52 90 110 47
58 87 107 90 110 3 3 28 32 55 65 28 33 60 71 71 85 50 58 160 186 169 196 5
6 39 44 75 84 79 89 160 178 180 199 60 64 261 307 334 406 49 66 101 136 116
155 118 156 226 392 263 580 42 210 52 490 23 635 -18 85 -30 122 -51 153 -31
45 -31 49 0 78 55 51 27 220 -48 292 -33 31 -143 109 -193 136 -36 19 -124
101 -151 141 -47 70 -49 91 -38 410 15 412 10 1202 -10 1465 -2 30 -7 92 -10
136 -3 45 -8 93 -10 105 -2 13 -8 56 -14 94 -27 178 -80 366 -150 534 -146
349 -418 685 -716 885 -90 61 -154 90 -294 137 -62 21 -135 52 -161 69 -45 29
-54 31 -129 29 -44 -1 -82 -3 -83 -5z"/>
</g>
</svg>
