<?xml version="1.0" standalone="no"?>
<!DOCTYPE svg PUBLIC "-//W3C//DTD SVG 20010904//EN"
 "http://www.w3.org/TR/2001/REC-SVG-20010904/DTD/svg10.dtd">
<svg version="1.0" xmlns="http://www.w3.org/2000/svg"
 width="800.000000pt" height="800.000000pt" viewBox="0 0 800.000000 800.000000"
 preserveAspectRatio="xMidYMid meet">
<metadata>
Created by potrace 1.14, written by Peter Selinger 2001-2017
</metadata>
<g transform="translate(0.000000,800.000000) scale(0.100000,-0.100000)"
fill="#000000" stroke="none">
<path d="M1356 6921 c-3 -5 -5 -1322 -3 -2928 l2 -2918 650 -3 650 -2 0 1097
c-1 893 -3 1105 -14 1138 -33 97 -66 142 -215 295 -84 85 -203 210 -265 278
l-113 122 159 168 c288 303 405 435 424 476 16 38 18 102 25 850 3 445 3 950
-1 1122 l-7 314 -644 0 c-371 0 -645 -4 -648 -9z"/>
<path d="M4930 6911 c-19 -11 -80 -68 -135 -127 -55 -60 -107 -115 -115 -124
-8 -8 -82 -87 -164 -175 -170 -182 -234 -250 -432 -460 -77 -83 -245 -262
-374 -400 -128 -137 -265 -284 -304 -325 -39 -41 -102 -109 -140 -150 -39 -41
-104 -111 -146 -155 -42 -44 -170 -181 -286 -305 -116 -124 -308 -328 -426
-455 -161 -172 -214 -234 -208 -245 8 -13 110 -124 549 -590 297 -315 504
-536 991 -1055 134 -143 284 -303 334 -355 50 -52 163 -171 251 -265 88 -93
198 -210 245 -260 47 -49 144 -153 215 -229 73 -78 144 -145 162 -152 49 -21
1688 -21 1676 0 -7 12 -87 96 -563 591 -186 193 -334 347 -481 500 -178 186
-355 370 -500 520 -69 71 -177 184 -240 250 -102 107 -185 194 -451 470 l-77
80 1134 3 1135 2 0 500 0 500 -1131 0 c-664 0 -1129 4 -1127 9 2 5 50 58 107
117 238 249 518 541 551 574 19 20 136 141 260 270 124 129 284 296 356 370
71 74 244 254 384 400 246 257 359 375 564 588 l99 102 -839 0 c-798 -1 -841
-2 -874 -19z"/>
</g>
</svg>
