<?xml version="1.0" encoding="utf-8"?>
<!-- Generator: Adobe Illustrator 25.4.1, SVG Export Plug-In . SVG Version: 6.00 Build 0)  -->
<svg version="1.1" id="Layer_1" xmlns="http://www.w3.org/2000/svg" xmlns:xlink="http://www.w3.org/1999/xlink" x="0px" y="0px"
	 viewBox="0 0 549 206" style="enable-background:new 0 0 549 206;" xml:space="preserve">
<style type="text/css">
	.st0{fill:#B5B5B5;}
</style>
<g>
	<path class="st0" d="M105,123l12.2,6.4c-4,7.9-8.6,14.2-13.9,19c-5.3,4.8-11.2,8.5-17.7,11c-6.6,2.5-14,3.8-22.3,3.8
		c-18.4,0-32.7-6-43.1-18.1c-10.4-12-15.5-25.7-15.5-40.8c0-14.3,4.4-27,13.2-38.2c11.1-14.2,26-21.3,44.7-21.3
		c19.2,0,34.5,7.3,46,21.8c8.2,10.3,12.3,23.1,12.4,38.5H19.6c0.3,13.1,4.5,23.8,12.5,32.2c8.1,8.4,18.1,12.5,30,12.5
		c5.7,0,11.3-1,16.7-3c5.4-2,10-4.6,13.8-7.9S100.6,130.4,105,123z M105,92.7c-1.9-7.7-4.8-13.9-8.4-18.5
		c-3.7-4.6-8.6-8.3-14.7-11.2c-6.1-2.8-12.5-4.2-19.2-4.2c-11.1,0-20.6,3.6-28.5,10.7C28.4,74.6,24,82.3,21,92.7H105z"/>
	<path class="st0" d="M135.2,4.3h14.5v156.1h-14.5V4.3z"/>
	<path class="st0" d="M215.5,47.7h14.7v129.6c0,9.5-1.7,16.3-5.1,20.7c-3.4,4.3-8.1,6.5-14,6.5c-4.9,0-10.4-1.2-16.6-3.5v-13
		c3.9,2,7.4,3,10.5,3c3.9,0,6.9-1.6,8.8-4.9c1.2-2.1,1.8-6.4,1.8-12.9V47.7z M222.7,1.4c3.3,0,6.1,1.2,8.4,3.5
		c2.3,2.3,3.5,5.2,3.5,8.5c0,3.2-1.2,6-3.5,8.4c-2.3,2.3-5.1,3.5-8.4,3.5c-3.3,0-6.1-1.2-8.4-3.5c-2.3-2.3-3.5-5.1-3.5-8.4
		c0-3.3,1.2-6.1,3.5-8.5C216.5,2.5,219.3,1.4,222.7,1.4z"/>
	<path class="st0" d="M344.6,123l12.2,6.4c-4,7.9-8.6,14.2-13.9,19c-5.3,4.8-11.2,8.5-17.7,11c-6.6,2.5-14,3.8-22.3,3.8
		c-18.4,0-32.7-6-43.1-18.1c-10.4-12-15.5-25.7-15.5-40.8c0-14.3,4.4-27,13.2-38.2c11.1-14.2,26-21.3,44.7-21.3
		c19.2,0,34.5,7.3,46,21.8c8.2,10.3,12.3,23.1,12.4,38.5H259.2c0.3,13.1,4.5,23.8,12.5,32.2c8.1,8.4,18.1,12.5,30,12.5
		c5.7,0,11.3-1,16.7-3c5.4-2,10-4.6,13.8-7.9S340.1,130.4,344.6,123z M344.6,92.7c-1.9-7.7-4.8-13.9-8.4-18.5
		c-3.7-4.6-8.6-8.3-14.7-11.2c-6.1-2.8-12.5-4.2-19.2-4.2c-11.1,0-20.6,3.6-28.5,10.7c-5.8,5.2-10.2,12.9-13.2,23.3H344.6z"/>
	<path class="st0" d="M423.3,4.3v14.2c-5.3-2.3-9.9-3.4-13.7-3.4c-2.8,0-5.2,0.6-7,1.7s-3,2.5-3.5,3.9c-0.5,1.5-0.7,5.4-0.7,11.9
		l0,15.2h23.5v12.5h-23.5l-0.1,100.1h-14.5V60.3H369V47.7h14.8V30.1c0-8.1,0.7-13.8,2.2-17.3c1.5-3.5,4-6.2,7.6-8.3
		c3.6-2.1,7.9-3.2,12.9-3.2C411.1,1.4,416.7,2.3,423.3,4.3z"/>
	<path class="st0" d="M527.7,123l12.2,6.4c-4,7.9-8.6,14.2-13.9,19c-5.3,4.8-11.2,8.5-17.7,11c-6.6,2.5-14,3.8-22.3,3.8
		c-18.4,0-32.7-6-43.1-18.1c-10.4-12-15.5-25.7-15.5-40.8c0-14.3,4.4-27,13.2-38.2c11.1-14.2,26-21.3,44.7-21.3
		c19.2,0,34.5,7.3,46,21.8c8.2,10.3,12.3,23.1,12.4,38.5H442.3c0.3,13.1,4.5,23.8,12.5,32.2c8.1,8.4,18.1,12.5,30,12.5
		c5.7,0,11.3-1,16.7-3c5.4-2,10-4.6,13.8-7.9S523.3,130.4,527.7,123z M527.7,92.7c-1.9-7.7-4.8-13.9-8.4-18.5
		c-3.7-4.6-8.6-8.3-14.7-11.2c-6.1-2.8-12.5-4.2-19.2-4.2c-11.1,0-20.6,3.6-28.5,10.7c-5.8,5.2-10.2,12.9-13.2,23.3H527.7z"/>
</g>
</svg>
